# xmcd
#
# Track frame offsets:
#	150
#	10855
#	27637
#	35812
#	47157
#	56245
#	67060
#	86475
#	96160
#	111725
#	122495
#	139527
#	154742
#	165430
#	181322
#	188702
#	204785
#
# Disc length: 2838 seconds
#
# Revision: 0
# Processed by: cddbd v1.5.2PL0 Copyright (c) Steve Scherf et al.
# Submitted via: audiograbber 1.83.01
#
DISCID=ec0b1411
DTITLE=Mario Adretti - Hot Chili
DYEAR=1992
DGENRE=Boogie
TTITLE0=Andrea Rag
TTITLE1=Little Brother
TTITLE2=St. Antonio Rag
TTITLE3=Down So Low
TTITLE4=Chili Rag
TTITLE5=Hot Chili
TTITLE6=Dr. John Boogie
TTITLE7=Rositha Rag
TTITLE8=Do You Wanna Boogie
TTITLE9=Delta Blues
TTITLE10=Adretti Stomp
TTITLE11=Cow Blues
TTITLE12=Brother Ray
TTITLE13=Sykes Boogie
TTITLE14=Jelly Roll
TTITLE15=Tango Blues
TTITLE16=Brother Mac
EXTD=
EXTT0=
EXTT1=
EXTT2=
EXTT3=
EXTT4=
EXTT5=
EXTT6=
EXTT7=
EXTT8=
EXTT9=
EXTT10=
EXTT11=
EXTT12=
EXTT13=
EXTT14=
EXTT15=
EXTT16=
PLAYORDER=
